<?xml version='1.0' encoding='utf-8'?>
<svg xmlns="http://www.w3.org/2000/svg" width="1920" height="1080" viewBox="0 0 1920 1080" data-theme="light">
  <style>
        @font-face {
            font-family: 'Inter';
            src: url('assets/fonts/Inter-Regular.ttf') format('truetype');
            font-weight: 400;
            font-style: normal;
            font-display: swap;
        }
        @font-face {
            font-family: 'Inter';
            src: url('assets/fonts/Inter-Bold.ttf') format('truetype');
            font-weight: 600;
            font-style: normal;
            font-display: swap;
        }
        @font-face {
            font-family: 'Inter';
            src: url('assets/fonts/Inter-Bold.ttf') format('truetype');
            font-weight: 800;
            font-style: normal;
            font-display: swap;
        }
        
:root {
    --background: #f8fafc;
    --panel: #ffffff;
    --primary-text: #0f172a;
    --muted-text: #64748b;
    --inverse-text: #ffffff;
    --border: #e2e8f0;
    --shadow-color: #000000;
    --icon-pad-bg: #1e293b;
    --art-glow: #0891b2;
    --art-glow-opacity: 0.10;
    --art-sheen: #ffffff;
    --art-sheen-opacity: 0.34;
    --art-shadow: #0f172a;
    --art-shadow-opacity: 0.14;
    --art-muted-line: #94a3b8;
    --art-panel-tint: #f1f5f9;
    --font-family: 'Inter', 'Segoe UI', 'Kalam', Roboto, Helvetica, Arial, sans-serif;
    --radius-xl: 16px;
    --font-family-headline: 'Inter', 'Segoe UI', 'Kalam', Roboto, Helvetica, Arial, sans-serif;
    --font-family-body: 'Inter', 'Segoe UI', 'Kalam', Roboto, Helvetica, Arial, sans-serif;
    --font-heading: 'Inter', 'Segoe UI', 'Kalam', Roboto, Helvetica, Arial, sans-serif;
    --font-body: 'Inter', 'Segoe UI', 'Kalam', Roboto, Helvetica, Arial, sans-serif;
    --font-size-h1: 56px;
    --font-size-h2: 40px;
    --font-size-h3: 28px;
    --font-size-body: 24px;
    --font-size-caption: 18px;
    --secondary-text: var(--muted-text);
    --panel-border: var(--border);
    --font-weight-normal: 400;
    --font-weight-medium: 500;
    --font-weight-semibold: 600;
    --font-weight-bold: 700;
    --spacing-gutter-pct: 0.07;
    --spacing-top-pct: 0.15;
    --spacing-bottom-pct: 0.07;
    --spacing-title-y-pct: 0.055;
    --accent-1: #4f46e5;
    --accent-2: #059669;
    --accent-3: #db2777;
    --accent-4: #d97706;
    --accent-5: #0284c7;
    --accent-6: #7c3aed;
    --accent-7: #dc2626;
    --accent-8: #0d9488;
    --accent-9: #ea580c;
    --accent-10: #c026d3;
}
:root[data-theme="dark"] {
    --background: #0f172a;
    --panel: #1e293b;
    --primary-text: #f1f5f9;
    --muted-text: #94a3b8;
    --inverse-text: #0f172a;
    --border: #334155;
    --shadow-color: #000000;
    --icon-pad-bg: #1e293b;
    --art-glow: #7dd3fc;
    --art-glow-opacity: 0.18;
    --art-sheen: #ffffff;
    --art-sheen-opacity: 0.18;
    --art-shadow: #000000;
    --art-shadow-opacity: 0.28;
    --art-muted-line: #64748b;
    --art-panel-tint: #1e293b;
    --accent-1: #a5b4fc;
    --accent-2: #34d399;
    --accent-3: #f472b6;
    --accent-4: #fbbf24;
    --accent-5: #38bdf8;
    --accent-6: #c084fc;
    --accent-7: #f87171;
    --accent-8: #2dd4bf;
    --accent-9: #fb923c;
    --accent-10: #e879f9;
}
:root[data-theme="light"] {
    --background: #f8fafc;
    --panel: #ffffff;
    --primary-text: #0f172a;
    --muted-text: #64748b;
    --inverse-text: #ffffff;
    --border: #e2e8f0;
    --shadow-color: #000000;
    --icon-pad-bg: #1e293b;
    --art-glow: #0891b2;
    --art-glow-opacity: 0.10;
    --art-sheen: #ffffff;
    --art-sheen-opacity: 0.34;
    --art-shadow: #0f172a;
    --art-shadow-opacity: 0.14;
    --art-muted-line: #94a3b8;
    --art-panel-tint: #f1f5f9;
    --accent-1: #4f46e5;
    --accent-2: #059669;
    --accent-3: #db2777;
    --accent-4: #d97706;
    --accent-5: #0284c7;
    --accent-6: #7c3aed;
    --accent-7: #dc2626;
    --accent-8: #0d9488;
    --accent-9: #ea580c;
    --accent-10: #c026d3;
}</style>
  <rect x="0" y="0" width="1.92E+3" height="1.08E+3" fill="#252a34" stroke="none" id="programmatic_background"/>
  <line id="HEADER_DECOR" x1="960.0" x2="1080.0" y1="135.0" y2="135.0" stroke="var(--accent-1)" stroke-width="6" stroke-linecap="round"/>
  <defs>
    <pattern id="svgd5cfd564-napkin-hatch" patternUnits="userSpaceOnUse" width="12" height="12">
      <path d="M -3 12 L 12 -3 M 0 15 L 15 0" fill="none" stroke="var(--primary-text)" stroke-width="1" stroke-opacity="0.05"/>
    </pattern>
    <filter id="svgd5cfd564-shadow" x="-30%" y="-30%" width="160%" height="160%">
      <feDropShadow dx="0" dy="3" stdDeviation="4" flood-color="#000000" flood-opacity="0.10"/>
      <feDropShadow dx="0" dy="10" stdDeviation="16" flood-color="#000000" flood-opacity="0.12"/>
    </filter>
    <radialGradient id="svgd5cfd564-universal-edge-vignette" cx="50%" cy="50%" r="72%">
      <stop offset="0%" stop-color="var(--background)" stop-opacity="0"/>
      <stop offset="72%" stop-color="var(--background)" stop-opacity="0.12"/>
      <stop offset="100%" stop-color="var(--primary-text)" stop-opacity="0.08"/>
    </radialGradient>
    <linearGradient id="svgd5cfd564-universal-surface-sheen" x1="0%" y1="0%" x2="100%" y2="100%">
      <stop offset="0%" stop-color="var(--art-sheen)" stop-opacity="var(--art-sheen-opacity)"/>
      <stop offset="46%" stop-color="var(--art-sheen)" stop-opacity="0.035"/>
      <stop offset="100%" stop-color="var(--art-panel-tint)" stop-opacity="0.14"/>
    </linearGradient>
    <radialGradient id="svgd5cfd564-universal-icon-aura" cx="50%" cy="42%" r="64%">
      <stop offset="0%" stop-color="var(--art-glow)" stop-opacity="var(--art-glow-opacity)"/>
      <stop offset="100%" stop-color="var(--background)" stop-opacity="0"/>
    </radialGradient>
    <filter id="svgd5cfd564-text-glow" x="-20%" y="-20%" width="140%" height="140%">
      <feDropShadow dx="0" dy="0" stdDeviation="2" flood-color="#000000" flood-opacity="0.4"/>
    </filter>
    <marker id="svgd5cfd564-arrowhead" markerWidth="10" markerHeight="7" refX="9" refY="3.5" orient="auto" markerUnits="strokeWidth">
      <polygon points="0 0, 10 3.5, 0 7" fill="var(--muted-text)" opacity="0.6"/>
    </marker>
  </defs>
  <rect id="CANVAS_BG" width="100%" height="100%" fill="var(--background)"/>
  <rect width="100%" height="100%" fill="url(#svgd5cfd564-napkin-hatch)"/>
  <rect id="UNIVERSAL_EDGE_VIGNETTE" width="100%" height="100%" fill="url(#svgd5cfd564-universal-edge-vignette)" opacity="0.62"/>
  <text id="TITLE" x="960.0" y="59" text-anchor="middle" font-weight="800" font-size="56" fill="#0f172a" style="font-size: 60px; font-family: Inter, Segoe UI, Kalam, Roboto, Helvetica, Arial, sans-serif; font-weight: 700; letter-spacing:-1.2px;" data-final-font-size="60">
    <tspan x="960.0" dy="68.00px">Shortlist Structure</tspan>
  </text>
  <rect id="TITLE_FRAME" x="134" y="59" width="1652" height="103" fill="none"/>
  <g id="FIELD">
    <rect x="170" y="250" width="700" height="280" rx="34" fill="var(--accent-1)" fill-opacity="0.08" stroke="var(--accent-1)" stroke-width="2" stroke-opacity="0.22"/>
    <rect x="1050" y="250" width="700" height="280" rx="34" fill="var(--accent-3)" fill-opacity="0.08" stroke="var(--accent-3)" stroke-width="2" stroke-opacity="0.22"/>
    <rect x="170" y="670" width="700" height="280" rx="34" fill="var(--accent-4)" fill-opacity="0.08" stroke="var(--accent-4)" stroke-width="2" stroke-opacity="0.18"/>
    <rect x="1050" y="670" width="700" height="280" rx="34" fill="var(--accent-6)" fill-opacity="0.08" stroke="var(--accent-6)" stroke-width="2" stroke-opacity="0.18"/>
    <line x1="960" y1="226" x2="960" y2="974" stroke="var(--primary-text)" stroke-width="11" stroke-opacity="0.20"/>
    <line x1="176" y1="600" x2="1744" y2="600" stroke="var(--primary-text)" stroke-width="11" stroke-opacity="0.20"/>
    <path d="M 960 534 L 1028 600 L 960 666 L 892 600 Z" fill="var(--panel)" fill-opacity="0.94" stroke="var(--primary-text)" stroke-width="4" stroke-opacity="0.28"/>
    <circle cx="960" cy="600" r="38" fill="var(--background)" stroke="var(--primary-text)" stroke-width="4"/>
    <g transform="translate(350, 384)">
      <rect id="ITEM_1_BG" x="-250" y="-110" width="500" height="220" rx="30" fill="var(--panel)" fill-opacity="0.95" stroke="var(--accent-1)" stroke-width="3" filter="url(#svgd5cfd564-shadow)"/>
      <rect x="-250" y="-110" width="500" height="220" rx="18" fill="url(#svgd5cfd564-universal-surface-sheen)" opacity="0.84"/>
      <rect x="204" y="-82" width="16" height="164" rx="8" fill="var(--accent-1)" fill-opacity="0.22"/>
      <circle cx="176" cy="-16" r="72" fill="none" stroke="var(--accent-1)" stroke-width="2.5" stroke-opacity="0.14"/>
      <text id="ITEM_1_HEAD" x="-204.0" y="-82.0" text-anchor="start" font-weight="700" font-size="28" fill="var(--primary-text)" data-bg-id="ITEM_1_BG" fill-opacity="1.0" style="font-size: 30px; font-family: Inter, Segoe UI, Kalam, Roboto, Helvetica, Arial, sans-serif; font-weight: 700; letter-spacing:-0.4px;" data-final-font-size="30">
        <tspan x="-204.0" dy="27.25px">Direct Answer</tspan>
      </text>
      <rect id="ITEM_1_HEAD_FRAME" x="-204" y="-82" width="310" height="38" fill="none"/>
      <text id="ITEM_1_BODY" x="-204.0" y="-2.0" text-anchor="start" font-size="19" fill="var(--muted-text)" data-bg-id="ITEM_1_BG"/>
      <rect id="ITEM_1_BODY_FRAME" x="-204" y="-2" width="320" height="98" fill="none"/>
      <circle id="ITEM_1_PAD" cx="176" cy="-16" r="44" fill="var(--icon-pad-bg)" opacity="0.96" fill-opacity="0.9" stroke-width="2" stroke="var(--primary-text)"/>
      <circle id="ITEM_1_PAD_INNER" cx="176" cy="-16" r="34.32" fill="var(--accent-2)" fill-opacity="0.22"/>
      <circle cx="176" cy="-16" r="35" fill="none" stroke="var(--accent-1)" stroke-width="2.5" stroke-dasharray="6 4"/>
      <g id="ITEM_1_ICON" transform="translate(141, -51)" data-icon-size="70" stroke-dasharray="6 4">
        <g transform="translate(-2.3140495867768593,-2.0247933884297513) scale(2.3140495867768593)">
          <path d="M16.0278 4C8.16615 4 3.53108 9.75575 1.66714 12.7026C0.772249 14.1175 0.772247 15.8825 1.66714 17.2974C3.53108 20.2442 8.16615 26 16.0278 26C17.2577 26 18.413 25.8582 19.4936 25.6063L23.8434 27.8365C24.8416 28.3483 26.0278 27.6235 26.0278 26.5017V22.3015C28.083 20.6044 29.5201 18.6702 30.3884 17.2974C31.2833 15.8825 31.2833 14.1175 30.3884 12.7026C28.5245 9.75575 23.8894 4 16.0278 4Z" fill="#9B9B9B"/>
          <path d="M24.2997 26.9467L19.6172 24.5458C18.5104 24.8344 17.3146 25 16.0278 25C8.70189 25 4.32778 19.6331 2.51227 16.7628C1.82387 15.6744 1.82387 14.3256 2.51228 13.2372C4.32778 10.3669 8.7019 5 16.0278 5C23.3537 5 27.7278 10.3669 29.5433 13.2372C30.2317 14.3256 30.2317 15.6744 29.5433 16.7628C28.6595 18.16 27.1695 20.1489 25.0278 21.8222V26.5017C25.0278 26.8757 24.6324 27.1173 24.2997 26.9467Z" fill="white"/>
        </g>
      </g>
    </g>
    <g transform="translate(960, 384)">
      <rect id="ITEM_2_BG" x="-250" y="-100" width="500" height="200" rx="30" fill="var(--panel)" fill-opacity="0.96" stroke="var(--accent-2)" stroke-width="3" filter="url(#svgd5cfd564-shadow)"/>
      <rect x="-198" y="-70" width="396" height="12" rx="6" fill="var(--accent-2)" fill-opacity="0.18"/>
      <circle cx="0" cy="-12" r="76" fill="none" stroke="var(--accent-2)" stroke-width="2.5" stroke-opacity="0.14"/>
      <text id="ITEM_2_HEAD" x="0.0" y="-72.0" text-anchor="middle" font-weight="700" font-size="28" fill="var(--accent-3)" data-bg-id="ITEM_2_BG" fill-opacity="1.0" style="font-size: 30px; font-family: Inter, Segoe UI, Kalam, Roboto, Helvetica, Arial, sans-serif; font-weight: 700; letter-spacing:-0.4px;" data-final-font-size="30">
        <tspan x="0.0" dy="27.25px">Disclosure</tspan>
      </text>
      <rect id="ITEM_2_HEAD_FRAME" x="-190" y="-72" width="380" height="38" fill="none"/>
      <text id="ITEM_2_BODY" x="0.0" y="0.0" text-anchor="middle" font-size="19" fill="var(--primary-text)" data-bg-id="ITEM_2_BG" style="font-size: 26px; font-family: Inter, Segoe UI, Kalam, Roboto, Helvetica, Arial, sans-serif; font-weight: 400;" data-final-font-size="26">
        <tspan x="0.0" dy="26.44px">Plain explanation that page</tspan>
        <tspan x="0.0" dy="29.90px">may earn commission</tspan>
      </text>
      <rect id="ITEM_2_BODY_FRAME" x="-190" y="0" width="380" height="88" fill="none"/>
      <circle id="ITEM_2_PAD" cx="0" cy="-12" r="45" fill="var(--icon-pad-bg)" opacity="0.96" fill-opacity="0.9" stroke-width="2" stroke="var(--primary-text)"/>
      <circle id="ITEM_2_PAD_INNER" cx="0" cy="-12" r="35.10" fill="var(--accent-3)" fill-opacity="0.22"/>
      <circle cx="0" cy="-12" r="36" fill="none" stroke="var(--accent-2)" stroke-width="2.5" stroke-dasharray="6 4"/>
      <g id="ITEM_2_ICON" transform="translate(-36, -48)" data-icon-size="72" stroke-dasharray="6 4">
        <g transform="translate(-4.421052631578948,-5.684210526315789) scale(2.0210526315789474)">
          <path d="m16.726,6.632L2.811,30.734c-1.455,2.52.364,5.67,3.274,5.67h27.831c2.91,0,4.728-3.15,3.274-5.67L23.274,6.632c-1.455-2.52-5.092-2.52-6.547,0Z" fill="#ffcd00"/>
          <path d="m20,27.547c-1.044,0-1.89.846-1.89,1.89s.846,1.89,1.89,1.89,1.89-.846,1.89-1.89-.846-1.89-1.89-1.89h0Z" fill="#303d4c"/>
          <path d="m20,25.078c-.884,0-1.6-.716-1.6-1.6v-7.875c0-.884.716-1.6,1.6-1.6s1.6.716,1.6,1.6v7.875c0,.884-.716,1.6-1.6,1.6Z" fill="#303d4c"/>
        </g>
      </g>
    </g>
    <g transform="translate(1570, 384)">
      <rect id="ITEM_3_BG" x="-250" y="-110" width="500" height="220" rx="30" fill="var(--panel)" fill-opacity="0.95" stroke="var(--accent-3)" stroke-width="3" filter="url(#svgd5cfd564-shadow)"/>
      <rect x="-250" y="-110" width="500" height="220" rx="18" fill="url(#svgd5cfd564-universal-surface-sheen)" opacity="0.84"/>
      <rect x="-220" y="-82" width="16" height="164" rx="8" fill="var(--accent-3)" fill-opacity="0.22"/>
      <circle cx="-176" cy="-16" r="72" fill="none" stroke="var(--accent-3)" stroke-width="2.5" stroke-opacity="0.14"/>
      <text id="ITEM_3_HEAD" x="204.0" y="-82.0" text-anchor="end" font-weight="700" font-size="28" fill="var(--primary-text)" data-bg-id="ITEM_3_BG" fill-opacity="1.0" style="font-size: 30px; font-family: Inter, Segoe UI, Kalam, Roboto, Helvetica, Arial, sans-serif; font-weight: 700; letter-spacing:-0.4px;" data-final-font-size="30">
        <tspan x="204.0" dy="27.25px">Comparison Table</tspan>
      </text>
      <rect id="ITEM_3_HEAD_FRAME" x="-106" y="-82" width="310" height="38" fill="none"/>
      <text id="ITEM_3_BODY" x="204.0" y="-2.0" text-anchor="end" font-size="19" fill="var(--primary-text)" data-bg-id="ITEM_3_BG" style="font-size: 26px; font-family: Inter, Segoe UI, Kalam, Roboto, Helvetica, Arial, sans-serif; font-weight: 400;" data-final-font-size="26">
        <tspan x="204.0" dy="28.44px">Shortlist, main use case,</tspan>
        <tspan x="204.0" dy="29.90px">price, standout feature</tspan>
      </text>
      <rect id="ITEM_3_BODY_FRAME" x="-116" y="-2" width="320" height="98" fill="none"/>
      <circle id="ITEM_3_PAD" cx="-176" cy="-16" r="44" fill="var(--icon-pad-bg)" opacity="0.96" fill-opacity="0.9" stroke-width="2" stroke="var(--primary-text)"/>
      <circle id="ITEM_3_PAD_INNER" cx="-176" cy="-16" r="34.32" fill="var(--accent-4)" fill-opacity="0.22"/>
      <circle cx="-176" cy="-16" r="35" fill="none" stroke="var(--accent-3)" stroke-width="2.5" stroke-dasharray="6 4"/>
      <g id="ITEM_3_ICON" transform="translate(-211, -51)" data-icon-size="70" stroke-dasharray="6 4">
        <g transform="translate(-11.666666666666666,-11.666666666666666) scale(3.888888888888889)" vector-effect="non-scaling-stroke" fill="#f1f5f9" fill-opacity="1.0" stroke="none">
          <path d="M19 3H5c-1.104 0-1.99.896-1.99 2l-.008 3H3v11a2 2 0 0 0 2 2h14a2 2 0 0 0 2-2V5a2 2 0 0 0-2-2zm0 8h-8v8H9v-8H5V9h4V5h2v4h8v2z" fill="#f1f5f9" vector-effect="non-scaling-stroke" stroke="none"/>
        </g>
      </g>
    </g>
    <g transform="translate(350, 816)">
      <rect id="ITEM_4_BG" x="-250" y="-110" width="500" height="220" rx="30" fill="var(--panel)" fill-opacity="0.95" stroke="var(--accent-4)" stroke-width="3" filter="url(#svgd5cfd564-shadow)"/>
      <rect x="-250" y="-110" width="500" height="220" rx="18" fill="url(#svgd5cfd564-universal-surface-sheen)" opacity="0.84"/>
      <rect x="204" y="-82" width="16" height="164" rx="8" fill="var(--accent-4)" fill-opacity="0.22"/>
      <circle cx="176" cy="-16" r="72" fill="none" stroke="var(--accent-4)" stroke-width="2.5" stroke-opacity="0.14"/>
      <text id="ITEM_4_HEAD" x="-204.0" y="-82.0" text-anchor="start" font-weight="700" font-size="28" fill="var(--primary-text)" data-bg-id="ITEM_4_BG" fill-opacity="1.0" style="font-size: 30px; font-family: Inter, Segoe UI, Kalam, Roboto, Helvetica, Arial, sans-serif; font-weight: 700; letter-spacing:-0.4px;" data-final-font-size="30">
        <tspan x="-204.0" dy="27.25px">Recommendation Cards</tspan>
      </text>
      <rect id="ITEM_4_HEAD_FRAME" x="-204" y="-82" width="310" height="38" fill="none"/>
      <text id="ITEM_4_BODY" x="-204.0" y="-2.0" text-anchor="start" font-size="19" fill="var(--primary-text)" data-bg-id="ITEM_4_BG" style="font-size: 26px; font-family: Inter, Segoe UI, Kalam, Roboto, Helvetica, Arial, sans-serif; font-weight: 400;" data-final-font-size="26">
        <tspan x="-204.0" dy="22.46px">Each pick gets clear</tspan>
        <tspan x="-204.0" dy="29.90px">label, reason,</tspan>
        <tspan x="-204.0" dy="29.90px">trade-off, CTA</tspan>
      </text>
      <rect id="ITEM_4_BODY_FRAME" x="-204" y="-2" width="320" height="98" fill="none"/>
      <circle id="ITEM_4_PAD" cx="176" cy="-16" r="44" fill="var(--icon-pad-bg)" opacity="0.96" fill-opacity="0.9" stroke-width="2" stroke="var(--primary-text)"/>
      <circle id="ITEM_4_PAD_INNER" cx="176" cy="-16" r="34.32" fill="var(--accent-5)" fill-opacity="0.22"/>
      <circle cx="176" cy="-16" r="35" fill="none" stroke="var(--accent-4)" stroke-width="2.5" stroke-dasharray="6 4"/>
      <g id="ITEM_4_ICON" transform="translate(141, -51)" data-icon-size="70" stroke-dasharray="6 4">
        <g transform="translate(-5.0,-17.5) scale(2.5)">
          <path d="M27.7524 30H4.24759C3.00892 30 2 28.9906 2 27.7512V14.2488C2 13.0094 3.00892 12 4.24759 12H27.7524C28.9911 12 30 13.0094 30 14.2488V27.7512C30 29.0006 28.9911 30 27.7524 30Z" fill="#00A6ED"/>
          <path d="M23.3864 24H5.61355C5.28163 24 5 23.7273 5 23.3838V20.6162C5 20.2828 5.27157 20 5.61355 20H23.3864C23.7184 20 24 20.2727 24 20.6162V23.3939C24 23.7273 23.7284 24 23.3864 24Z" fill="#F4F4F4"/>
          <path d="M25.3532 28H27.1468C27.6219 28 28 27.6219 28 27.1468V25.3532C28 24.8781 27.6219 24.5 27.1468 24.5H25.3532C24.8781 24.5 24.5 24.8781 24.5 25.3532V27.1468C24.5 27.6122 24.8878 28 25.3532 28Z" fill="#FFF478"/>
          <path d="M30 15H2V18H30V15Z" fill="#321B41"/>
          <path d="M6 22C6 21.7239 6.22386 21.5 6.5 21.5H17.5C17.7761 21.5 18 21.7239 18 22C18 22.2761 17.7761 22.5 17.5 22.5H6.5C6.22386 22.5 6 22.2761 6 22Z" fill="#9B9B9B"/>
        </g>
      </g>
    </g>
    <g transform="translate(960, 816)">
      <rect id="ITEM_5_BG" x="-250" y="-100" width="500" height="200" rx="30" fill="var(--panel)" fill-opacity="0.96" stroke="var(--accent-5)" stroke-width="3" filter="url(#svgd5cfd564-shadow)"/>
      <rect x="-198" y="-70" width="396" height="12" rx="6" fill="var(--accent-5)" fill-opacity="0.18"/>
      <circle cx="0" cy="-12" r="76" fill="none" stroke="var(--accent-5)" stroke-width="2.5" stroke-opacity="0.14"/>
      <text id="ITEM_5_HEAD" x="0.0" y="-72.0" text-anchor="middle" font-weight="700" font-size="28" fill="var(--accent-6)" data-bg-id="ITEM_5_BG" fill-opacity="1.0" style="font-size: 30px; font-family: Inter, Segoe UI, Kalam, Roboto, Helvetica, Arial, sans-serif; font-weight: 700; letter-spacing:-0.4px;" data-final-font-size="30">
        <tspan x="0.0" dy="27.25px">Deeper Guidance</tspan>
      </text>
      <rect id="ITEM_5_HEAD_FRAME" x="-190" y="-72" width="380" height="38" fill="none"/>
      <text id="ITEM_5_BODY" x="0.0" y="0.0" text-anchor="middle" font-size="19" fill="var(--primary-text)" data-bg-id="ITEM_5_BG" style="font-size: 26px; font-family: Inter, Segoe UI, Kalam, Roboto, Helvetica, Arial, sans-serif; font-weight: 400;" data-final-font-size="26">
        <tspan x="0.0" dy="26.44px">What to consider before</tspan>
        <tspan x="0.0" dy="29.90px">choosing the final option</tspan>
      </text>
      <rect id="ITEM_5_BODY_FRAME" x="-190" y="0" width="380" height="88" fill="none"/>
      <circle id="ITEM_5_PAD" cx="0" cy="-12" r="45" fill="var(--icon-pad-bg)" opacity="0.96" fill-opacity="0.9" stroke-width="2" stroke="var(--primary-text)"/>
      <circle id="ITEM_5_PAD_INNER" cx="0" cy="-12" r="35.10" fill="var(--accent-6)" fill-opacity="0.22"/>
      <circle cx="0" cy="-12" r="36" fill="none" stroke="var(--accent-5)" stroke-width="2.5" stroke-dasharray="6 4"/>
      <g id="ITEM_5_ICON" transform="translate(-36, -48)" data-icon-size="72" stroke-dasharray="6 4">
        <g transform="translate(-3.0508474576271194,-3.050847457627119) scale(3.2542372881355934)" vector-effect="non-scaling-stroke" stroke-width="2.58" stroke-linecap="round" stroke-linejoin="round" stroke-opacity="1.0">
          <path d="M4 19.5v-15A2.5 2.5 0 0 1 6.5 2H19a1 1 0 0 1 1 1v18a1 1 0 0 1-1 1H6.5a1 1 0 0 1 0-5H20" vector-effect="non-scaling-stroke" fill="none" stroke="#f1f5f9"/>
        </g>
      </g>
    </g>
    <g transform="translate(1570, 816)">
      <rect id="ITEM_6_BG" x="-250" y="-110" width="500" height="220" rx="30" fill="var(--panel)" fill-opacity="0.95" stroke="var(--accent-6)" stroke-width="3" filter="url(#svgd5cfd564-shadow)"/>
      <rect x="-250" y="-110" width="500" height="220" rx="18" fill="url(#svgd5cfd564-universal-surface-sheen)" opacity="0.84"/>
      <rect x="-220" y="-82" width="16" height="164" rx="8" fill="var(--accent-6)" fill-opacity="0.22"/>
      <circle cx="-176" cy="-16" r="72" fill="none" stroke="var(--accent-6)" stroke-width="2.5" stroke-opacity="0.14"/>
      <text id="ITEM_6_HEAD" x="204.0" y="-82.0" text-anchor="end" font-weight="700" font-size="28" fill="var(--accent-7)" data-bg-id="ITEM_6_BG" fill-opacity="1.0" style="font-size: 30px; font-family: Inter, Segoe UI, Kalam, Roboto, Helvetica, Arial, sans-serif; font-weight: 700; letter-spacing:-0.4px;" data-final-font-size="30">
        <tspan x="204.0" dy="27.25px">Related Links</tspan>
      </text>
      <rect id="ITEM_6_HEAD_FRAME" x="-106" y="-82" width="310" height="38" fill="none"/>
      <text id="ITEM_6_BODY" x="204.0" y="-2.0" text-anchor="end" font-size="19" fill="var(--primary-text)" data-bg-id="ITEM_6_BG" style="font-size: 26px; font-family: Inter, Segoe UI, Kalam, Roboto, Helvetica, Arial, sans-serif; font-weight: 400;" data-final-font-size="26">
        <tspan x="204.0" dy="22.46px">Individual reviews,</tspan>
        <tspan x="204.0" dy="29.90px">alternatives, and</tspan>
        <tspan x="204.0" dy="29.90px">adjacent guides</tspan>
      </text>
      <rect id="ITEM_6_BODY_FRAME" x="-116" y="-2" width="320" height="98" fill="none"/>
      <circle id="ITEM_6_PAD" cx="-176" cy="-16" r="44" fill="var(--icon-pad-bg)" opacity="0.96" fill-opacity="0.9" stroke-width="2" stroke="var(--primary-text)"/>
      <circle id="ITEM_6_PAD_INNER" cx="-176" cy="-16" r="34.32" fill="var(--accent-7)" fill-opacity="0.22"/>
      <circle cx="-176" cy="-16" r="35" fill="none" stroke="var(--accent-6)" stroke-width="2.5" stroke-dasharray="6 4"/>
      <g id="ITEM_6_ICON" transform="translate(-211, -51)" data-icon-size="70" stroke-dasharray="6 4">
        <g transform="translate(-5.0,-5.0) scale(2.5)">
          <path d="M21.1475 21.1475C19.5275 20.7171 18.3006 21.0135 16.5275 21.7175L13.1175 25.1275C11.3475 26.8975 8.4775 26.8975 6.7175 25.1275C4.9475 23.3575 4.9475 20.4875 6.7175 18.7275L10.1275 15.3175H11.0489L13.4375 13.4475C14.7475 13.3075 16.1175 13.7175 17.1175 14.7275C18.1175 15.7375 18.5375 17.0975 18.3975 18.4075C19.1157 19.1907 20.0747 19.3579 20.8347 18.5979L21.7075 16.5375C21.4375 14.9975 20.7075 13.5175 19.5175 12.3275C18.3275 11.1375 16.8475 10.4075 15.3075 10.1375L13.1175 9.46387L10.6975 10.6975C9.8375 11.0775 9.0275 11.6175 8.3175 12.3275L4.3175 16.3275C1.2275 19.4175 1.2275 24.4475 4.3175 27.5375C7.4075 30.6275 12.4375 30.6275 15.5275 27.5375L19.5275 23.5375C20.2275 22.8275 20.7675 22.0175 21.1475 21.1475Z" fill="#9B9B9B"/>
          <path d="M27.5277 4.3175C24.4377 1.2275 19.4077 1.2275 16.3177 4.3175L12.3177 8.3175C11.6177 9.0275 11.0777 9.8375 10.6977 10.6975C12.1577 10.0475 13.7677 9.8575 15.3177 10.1275L18.7277 6.7175C20.4977 4.9475 23.3677 4.9475 25.1277 6.7175C26.8877 8.4875 26.8977 11.3575 25.1277 13.1175L21.7177 16.5275L21.1277 17.1175C20.3677 17.8775 19.3977 18.2875 18.4077 18.3975C17.0977 18.5375 15.7277 18.1275 14.7277 17.1175C13.7277 16.1075 13.3077 14.7475 13.4477 13.4375C12.4477 13.5475 11.4877 13.9575 10.7277 14.7175L10.1377 15.3075C10.4077 16.8475 11.1377 18.3275 12.3277 19.5175C13.5177 20.7075 14.9977 21.4375 16.5377 21.7075C18.0877 21.9775 19.6977 21.7875 21.1577 21.1375C22.0177 20.7575 22.8277 20.2175 23.5377 19.5075L27.5377 15.5075C30.6177 12.4375 30.6177 7.4075 27.5277 4.3175Z" fill="#BEBEBE"/>
        </g>
      </g>
    </g>
  </g>
</svg>
