<?xml version='1.0' encoding='utf-8'?>
<svg xmlns="http://www.w3.org/2000/svg" width="1920" height="1080" viewBox="0 0 1920 1080" data-theme="light">
  <style>
        @font-face {
            font-family: 'Inter';
            src: url('assets/fonts/Inter-Regular.ttf') format('truetype');
            font-weight: 400;
            font-style: normal;
            font-display: swap;
        }
        @font-face {
            font-family: 'Inter';
            src: url('assets/fonts/Inter-Bold.ttf') format('truetype');
            font-weight: 600;
            font-style: normal;
            font-display: swap;
        }
        @font-face {
            font-family: 'Inter';
            src: url('assets/fonts/Inter-Bold.ttf') format('truetype');
            font-weight: 800;
            font-style: normal;
            font-display: swap;
        }
        
:root {
    --background: #f8fafc;
    --panel: #ffffff;
    --primary-text: #0f172a;
    --muted-text: #64748b;
    --inverse-text: #ffffff;
    --border: #e2e8f0;
    --shadow-color: #000000;
    --icon-pad-bg: #1e293b;
    --art-glow: #0891b2;
    --art-glow-opacity: 0.10;
    --art-sheen: #ffffff;
    --art-sheen-opacity: 0.34;
    --art-shadow: #0f172a;
    --art-shadow-opacity: 0.14;
    --art-muted-line: #94a3b8;
    --art-panel-tint: #f1f5f9;
    --font-family: 'Inter', 'Segoe UI', 'Kalam', Roboto, Helvetica, Arial, sans-serif;
    --radius-xl: 16px;
    --font-family-headline: 'Inter', 'Segoe UI', 'Kalam', Roboto, Helvetica, Arial, sans-serif;
    --font-family-body: 'Inter', 'Segoe UI', 'Kalam', Roboto, Helvetica, Arial, sans-serif;
    --font-heading: 'Inter', 'Segoe UI', 'Kalam', Roboto, Helvetica, Arial, sans-serif;
    --font-body: 'Inter', 'Segoe UI', 'Kalam', Roboto, Helvetica, Arial, sans-serif;
    --font-size-h1: 56px;
    --font-size-h2: 40px;
    --font-size-h3: 28px;
    --font-size-body: 24px;
    --font-size-caption: 18px;
    --secondary-text: var(--muted-text);
    --panel-border: var(--border);
    --font-weight-normal: 400;
    --font-weight-medium: 500;
    --font-weight-semibold: 600;
    --font-weight-bold: 700;
    --spacing-gutter-pct: 0.07;
    --spacing-top-pct: 0.15;
    --spacing-bottom-pct: 0.07;
    --spacing-title-y-pct: 0.055;
    --accent-1: #2563eb;
    --accent-2: #16a34a;
    --accent-3: #ea580c;
    --accent-4: #7c3aed;
    --accent-5: #0284c7;
    --accent-6: #475569;
}
:root[data-theme="dark"] {
    --background: #0f172a;
    --panel: #1e293b;
    --primary-text: #f1f5f9;
    --muted-text: #94a3b8;
    --inverse-text: #0f172a;
    --border: #334155;
    --shadow-color: #000000;
    --icon-pad-bg: #1e293b;
    --art-glow: #7dd3fc;
    --art-glow-opacity: 0.18;
    --art-sheen: #ffffff;
    --art-sheen-opacity: 0.18;
    --art-shadow: #000000;
    --art-shadow-opacity: 0.28;
    --art-muted-line: #64748b;
    --art-panel-tint: #1e293b;
    --accent-1: #60a5fa;
    --accent-2: #4ade80;
    --accent-3: #f97316;
    --accent-4: #a78bfa;
    --accent-5: #38bdf8;
    --accent-6: #94a3b8;
}
:root[data-theme="light"] {
    --background: #f8fafc;
    --panel: #ffffff;
    --primary-text: #0f172a;
    --muted-text: #64748b;
    --inverse-text: #ffffff;
    --border: #e2e8f0;
    --shadow-color: #000000;
    --icon-pad-bg: #1e293b;
    --art-glow: #0891b2;
    --art-glow-opacity: 0.10;
    --art-sheen: #ffffff;
    --art-sheen-opacity: 0.34;
    --art-shadow: #0f172a;
    --art-shadow-opacity: 0.14;
    --art-muted-line: #94a3b8;
    --art-panel-tint: #f1f5f9;
    --accent-1: #2563eb;
    --accent-2: #16a34a;
    --accent-3: #ea580c;
    --accent-4: #7c3aed;
    --accent-5: #0284c7;
    --accent-6: #475569;
}</style>
  <rect x="0" y="0" width="1.92E+3" height="1.08E+3" fill="#252a34" stroke="none" id="programmatic_background"/>
  <line id="HEADER_DECOR" x1="960.0" x2="1080.0" y1="135.0" y2="135.0" stroke="var(--accent-1)" stroke-width="6" stroke-linecap="round"/>
  <defs>
    <pattern id="svg35e2641a-napkin-hatch" patternUnits="userSpaceOnUse" width="12" height="12">
      <path d="M -3 12 L 12 -3 M 0 15 L 15 0" fill="none" stroke="var(--primary-text)" stroke-width="1" stroke-opacity="0.05"/>
    </pattern>
    <filter id="svg35e2641a-shadow" x="-30%" y="-30%" width="160%" height="160%">
      <feDropShadow dx="0" dy="2" stdDeviation="3" flood-color="#000000" flood-opacity="0.08"/>
      <feDropShadow dx="0" dy="6" stdDeviation="10" flood-color="#000000" flood-opacity="0.12"/>
    </filter>
    <radialGradient id="svg35e2641a-universal-edge-vignette" cx="50%" cy="50%" r="72%">
      <stop offset="0%" stop-color="var(--background)" stop-opacity="0"/>
      <stop offset="72%" stop-color="var(--background)" stop-opacity="0.12"/>
      <stop offset="100%" stop-color="var(--primary-text)" stop-opacity="0.08"/>
    </radialGradient>
    <linearGradient id="svg35e2641a-universal-surface-sheen" x1="0%" y1="0%" x2="100%" y2="100%">
      <stop offset="0%" stop-color="var(--art-sheen)" stop-opacity="var(--art-sheen-opacity)"/>
      <stop offset="46%" stop-color="var(--art-sheen)" stop-opacity="0.035"/>
      <stop offset="100%" stop-color="var(--art-panel-tint)" stop-opacity="0.14"/>
    </linearGradient>
    <radialGradient id="svg35e2641a-universal-icon-aura" cx="50%" cy="42%" r="64%">
      <stop offset="0%" stop-color="var(--art-glow)" stop-opacity="var(--art-glow-opacity)"/>
      <stop offset="100%" stop-color="var(--background)" stop-opacity="0"/>
    </radialGradient>
    <linearGradient id="svg35e2641a-fact-card-sheen" x1="0%" y1="0%" x2="100%" y2="100%">
      <stop offset="0%" stop-color="var(--inverse-text)" stop-opacity="0.18"/>
      <stop offset="54%" stop-color="var(--inverse-text)" stop-opacity="0.04"/>
      <stop offset="100%" stop-color="var(--background)" stop-opacity="0.14"/>
    </linearGradient>
    <radialGradient id="svg35e2641a-fact-icon-glow" cx="50%" cy="42%" r="62%">
      <stop offset="0%" stop-color="var(--inverse-text)" stop-opacity="0.22"/>
      <stop offset="100%" stop-color="var(--background)" stop-opacity="0"/>
    </radialGradient>
    <filter id="svg35e2641a-text-glow" x="-20%" y="-20%" width="140%" height="140%">
      <feDropShadow dx="0" dy="0" stdDeviation="2" flood-color="#000000" flood-opacity="0.4"/>
    </filter>
    <marker id="svg35e2641a-arrowhead" markerWidth="10" markerHeight="7" refX="9" refY="3.5" orient="auto" markerUnits="strokeWidth">
      <polygon points="0 0, 10 3.5, 0 7" fill="var(--muted-text)" opacity="0.6"/>
    </marker>
  </defs>
  <rect width="100%" height="100%" fill="var(--background)" id="CANVAS_BG"/>
  <rect width="100%" height="100%" fill="url(#svg35e2641a-napkin-hatch)"/>
  <rect id="UNIVERSAL_EDGE_VIGNETTE" width="100%" height="100%" fill="url(#svg35e2641a-universal-edge-vignette)" opacity="0.62"/>
  <line x1="960" y1="178" x2="960" y2="986" stroke="var(--muted-text)" stroke-width="5" stroke-opacity="0.10" stroke-linecap="round"/>
  <path d="M 360 178 C 620 152 1300 152 1560 178" fill="none" stroke="var(--primary-text)" stroke-width="2" stroke-opacity="0.12" stroke-linecap="round"/>
  <text id="TITLE" x="960.0" y="59" text-anchor="middle" font-weight="800" font-size="72" fill="#0f172a" style="font-size: 60px; font-family: Inter, Segoe UI, Kalam, Roboto, Helvetica, Arial, sans-serif; font-weight: 700; letter-spacing:-1.2px;" data-final-font-size="60">
    <tspan x="960.0" dy="68.00px">Trust Beats High Rates</tspan>
  </text>
  <rect id="TITLE_FRAME" x="134" y="59" width="1652" height="103" fill="none"/>
  <g transform="translate(960.0, 250.0)">
    <rect id="ITEM_1_BG" x="-600" y="-72" width="1200" height="176" rx="24" fill="var(--accent-2)" stroke="var(--accent-1)" filter="url(#svg35e2641a-shadow)" stroke-width="3" fill-opacity="1.0"/>
    <g transform="translate(-480.0, 0.0)">
      <circle r="60" fill="var(--background)" opacity="0.3"/>
      <circle id="ITEM_1_PAD" cx="0" cy="0" r="50" fill="var(--icon-pad-bg)" stroke="var(--primary-text)" opacity="0.9" fill-opacity="0.9" stroke-width="2"/>
      <circle id="ITEM_1_PAD_INNER" cx="0" cy="0" r="39.00" fill="var(--accent-2)" fill-opacity="0.22"/>
      <circle cx="0" cy="0" r="40" fill="none" stroke="var(--accent-1)" stroke-width="3" stroke-dasharray="6 4"/>
      <g id="ITEM_1_ICON" transform="translate(-39, -39)" data-icon-size="78" stroke-dasharray="6 4">
        <g transform="translate(-5.571428571428571,-6.964285714285712) scale(2.7857142857142856)">
          <path d="M7.17 21.7566L22.94 23L23.9824 19H24.5182C25.8896 19 27.0125 20.3403 27.0125 21.8852V22C27.0125 23.6075 25.8089 25 24.3779 25H3C2.45344 25 2 25.382 2 25.9562C2 26.5303 2.44718 27 2.99374 27H24.4188C26.943 27 29 24.7557 29 22V21.8852C29 19.1921 26.9926 17 24.5182 17H24.5035L24.5066 16.9884C24.7278 16.9397 24.9 16.7438 24.9 16.5192V16.4808C24.9 16.337 24.8344 16.2097 24.7322 16.1223L27.37 6H5.2C3.44 6 2 7.43242 2 9.25278L2.52 17.7478C2.67 20.2645 5.04 21.5875 7.17 21.7566ZM21.6161 16H20V12H22.6046L21.6161 16ZM22.8518 11H20V8.00704L21.95 8.00936C22.79 8.00936 23.4 8.78525 23.2 9.59099L22.8518 11ZM19 8.00586V11H14.62V8.00065L19 8.00586ZM13.62 7.99946V11H9.02002V7.994L13.62 7.99946ZM8.02002 7.99281V11H4.11139L4 9.1931C4 8.52662 4.54 7.98947 5.21 7.98947L8.02002 7.99281ZM4.17303 12H8.02002V16H4.41961L4.17303 12ZM4.48126 17H8.02002V19.8306L7.34 19.7771C6 19.6676 4.6 18.9017 4.52 17.6284L4.48126 17ZM9.02002 19.9094V17H13.62V20.2716L9.02002 19.9094ZM14.62 20.3504V17H19V20.62C19 20.6457 19.002 20.671 19.0058 20.6957L14.62 20.3504ZM20 20.6002V17H21.3689L20.69 19.7472C20.5958 20.1344 20.3361 20.4392 20 20.6002ZM14.62 12H19V16H14.62V12ZM9.02002 12H13.62V16H9.02002V12Z" fill="#9B9B9B"/>
          <path d="M22.8035 23.9707C22.2419 23.839 21.8923 23.2818 22.03 22.7448L26.9145 3.76832C27.0522 3.23134 27.635 2.897 28.1965 3.02871C28.7581 3.16042 29.1077 3.71766 28.97 4.25463L24.0855 23.2311C23.9478 23.7782 23.3756 24.1024 22.8035 23.9707Z" fill="#BEBEBE"/>
          <path d="M27 5H29C29.55 5 30 4.55 30 4C30 3.45 29.55 3 29 3H27C26.45 3 26 3.45 26 4C26 4.55 26.45 5 27 5Z" fill="#0084CE"/>
          <path d="M5.5 30C6.32843 30 7 29.3284 7 28.5C7 27.6716 6.32843 27 5.5 27C4.67157 27 4 27.6716 4 28.5C4 29.3284 4.67157 30 5.5 30Z" fill="#0084CE"/>
          <path d="M23.5 30C24.3284 30 25 29.3284 25 28.5C25 27.6716 24.3284 27 23.5 27C22.6716 27 22 27.6716 22 28.5C22 29.3284 22.6716 30 23.5 30Z" fill="#0084CE"/>
        </g>
      </g>
    </g>
    <g transform="translate(-330, -36)">
      <text id="ITEM_1_HEAD" text-anchor="start" font-weight="bold" font-size="34" fill="var(--primary-text)" x="0.0" y="-10.0" data-bg-id="ITEM_1_BG" fill-opacity="1.0" style="font-size: 30px; font-family: Inter, Segoe UI, Kalam, Roboto, Helvetica, Arial, sans-serif; font-weight: 700; letter-spacing:-0.4px;" data-final-font-size="30">
        <tspan x="0.0" dy="30.25px">Familiar Checkout</tspan>
      </text>
      <rect id="ITEM_1_HEAD_FRAME" x="0" y="-10" width="846" height="44" fill="none"/>
      <text id="ITEM_1_BODY" text-anchor="start" font-size="24" fill="var(--primary-text)" x="0.0" y="24.0" data-bg-id="ITEM_1_BG" style="font-size: 26px; font-family: Inter, Segoe UI, Kalam, Roboto, Helvetica, Arial, sans-serif; font-weight: 400;" data-final-font-size="26">
        <tspan x="0.0" dy="31.62px">Stored payment details reduce friction instantly</tspan>
      </text>
      <rect id="ITEM_1_BODY_FRAME" x="0" y="24" width="846" height="84" fill="none"/>
    </g>
  </g>
  <g transform="translate(960.0, 465.0)">
    <rect id="ITEM_2_BG" x="-600" y="-72" width="1200" height="176" rx="24" fill="var(--accent-3)" stroke="var(--accent-2)" filter="url(#svg35e2641a-shadow)" stroke-width="3" fill-opacity="1.0"/>
    <g transform="translate(-480.0, 0.0)">
      <circle r="60" fill="var(--background)" opacity="0.3"/>
      <circle id="ITEM_2_PAD" cx="0" cy="0" r="50" fill="var(--icon-pad-bg)" stroke="var(--primary-text)" opacity="0.9" fill-opacity="0.9" stroke-width="2"/>
      <circle id="ITEM_2_PAD_INNER" cx="0" cy="0" r="39.00" fill="var(--accent-3)" fill-opacity="0.22"/>
      <circle cx="0" cy="0" r="40" fill="none" stroke="var(--accent-1)" stroke-width="3" stroke-dasharray="6 4"/>
      <g id="ITEM_2_ICON" transform="translate(-39, -39)" data-icon-size="78" stroke-dasharray="6 4">
        <g transform="translate(-5.571428571428571,-5.571428571428571) scale(2.7857142857142856)">
          <path d="M10.32 10.64C12.7059 10.64 14.64 8.70587 14.64 6.32C14.64 3.93413 12.7059 2 10.32 2C7.93413 2 6 3.93413 6 6.32C6 8.70587 7.93413 10.64 10.32 10.64Z" fill="#B4ACBC"/>
          <path d="M13.34 2C15.73 2 17.67 3.94 17.67 6.33C17.67 6.43325 17.6664 6.53565 17.6593 6.63707L19.32 6.20999C24.884 5.00562 29.9526 9.40868 29.9997 15.0902C29.9999 15.0934 30 15.0967 30 15.1V19.89C30 21.62 29.6 23.02 27.87 23.02H22.22C20.7322 23.02 19.8822 22.2115 19.4833 21.01H16.41C15.01 21.01 13.68 20.49 12.48 19.91L12.1971 21L10.5 21.5L8.94931 21L9.75001 17.87C8.99507 17.0464 8.38614 16.0768 7.97172 15H4.14C2.96 15 2 14.04 2 12.86C2 12.16 2.34 11.51 2.91 11.11L9.03 6.82C9.01 6.66 9 6.5 9 6.33C9 3.94 10.95 2 13.34 2Z" fill="#CDC4D6"/>
          <path d="M13.33 9.57996C15.1249 9.57996 16.58 8.12488 16.58 6.32996C16.58 4.53503 15.1249 3.07996 13.33 3.07996C11.5351 3.07996 10.08 4.53503 10.08 6.32996C10.08 8.12488 11.5351 9.57996 13.33 9.57996Z" fill="#FF8687"/>
          <path d="M27.0289 23.016C26.4177 23.6357 25.5684 24.0201 24.63 24.0201L18.99 24.0101C17.34 24.0101 16 25.3501 16 27.0001C16 28.6501 17.34 29.9901 18.98 29.9901L23 30.0001C23.55 30.0001 24 29.5601 24.01 29.0001C24.01 28.4501 23.56 28.0001 23.01 28.0001L18.99 27.9901C18.44 27.9901 18 27.5501 18 27.0001C18 26.4501 18.44 26.0101 18.99 26.0101L24.63 26.0201C27.59 26.0201 30 23.6101 30 20.6501V19.8986C29.9955 21.5714 28.6821 22.9336 27.0289 23.016Z" fill="#FF8687"/>
          <path d="M22.8167 23C21.4955 22.8684 20.3626 22.0969 19.7321 21H17.1111C16.4938 21 16 21.4444 16 22C16 22.5556 16.4938 23 17.1111 23H22.8167Z" fill="#FF8687"/>
          <path d="M8.54003 22.61L8.95003 21H12.19L11.87 22.26C11.73 22.8 11.42 23 11 23H8.84003C8.64003 23 8.49003 22.8 8.54003 22.61Z" fill="#FF8687"/>
          <path d="M2 12.84C2 12.46 2.1 12.09 2.29 11.77C2.75 11.9 3.08 12.31 3.08 12.81C3.08 13.32 2.73 13.74 2.26 13.86C2.09 13.56 2 13.21 2 12.84Z" fill="#FF8687"/>
          <path d="M6.81 12.62C7.25735 12.62 7.62 12.2574 7.62 11.81C7.62 11.3626 7.25735 11 6.81 11C6.36265 11 6 11.3626 6 11.81C6 12.2574 6.36265 12.62 6.81 12.62Z" fill="#1C1C1C"/>
        </g>
      </g>
    </g>
    <g transform="translate(-330, -36)">
      <text id="ITEM_2_HEAD" text-anchor="start" font-weight="bold" font-size="34" fill="var(--primary-text)" x="0.0" y="-10.0" data-bg-id="ITEM_2_BG" fill-opacity="1.0" style="font-size: 30px; font-family: Inter, Segoe UI, Kalam, Roboto, Helvetica, Arial, sans-serif; font-weight: 700; letter-spacing:-0.4px;" data-final-font-size="30">
        <tspan x="0.0" dy="30.25px">High Conversion</tspan>
      </text>
      <rect id="ITEM_2_HEAD_FRAME" x="0" y="-10" width="846" height="44" fill="none"/>
      <text id="ITEM_2_BODY" text-anchor="start" font-size="24" fill="var(--primary-text)" x="0.0" y="24.0" data-bg-id="ITEM_2_BG" style="font-size: 26px; font-family: Inter, Segoe UI, Kalam, Roboto, Helvetica, Arial, sans-serif; font-weight: 400;" data-final-font-size="26">
        <tspan x="0.0" dy="31.62px">Mid-single digit rates beat niche merchants</tspan>
      </text>
      <rect id="ITEM_2_BODY_FRAME" x="0" y="24" width="846" height="84" fill="none"/>
    </g>
  </g>
  <g transform="translate(960.0, 660.0)">
    <rect id="ITEM_3_BG" x="-600" y="-72" width="1200" height="176" rx="24" fill="var(--accent-4)" stroke="var(--accent-3)" filter="url(#svg35e2641a-shadow)" stroke-width="3" fill-opacity="1.0"/>
    <g transform="translate(-480.0, 0.0)">
      <circle r="60" fill="var(--background)" opacity="0.3"/>
      <circle id="ITEM_3_PAD" cx="0" cy="0" r="50" fill="var(--icon-pad-bg)" stroke="var(--primary-text)" opacity="0.9" fill-opacity="0.9" stroke-width="2"/>
      <circle id="ITEM_3_PAD_INNER" cx="0" cy="0" r="39.00" fill="var(--accent-4)" fill-opacity="0.22"/>
      <circle cx="0" cy="0" r="40" fill="none" stroke="var(--accent-2)" stroke-width="3" stroke-dasharray="6 4"/>
      <g id="ITEM_3_ICON" transform="translate(-39, -39)" data-icon-size="78" stroke-dasharray="6 4">
        <g transform="translate(0.0,0.0) scale(5.571428571428571)" vector-effect="non-scaling-stroke" stroke-width="2.65" stroke-linecap="round" stroke-linejoin="round" stroke-opacity="1.0">
          <path id="Vector" fill="none" d="M12.5 12.5v-5h-11v5c0 0.5523 0.44772 1 1 1h9c0.5523 0 1 -0.4477 1 -1Z" vector-effect="non-scaling-stroke" stroke="#f1f5f9"/>
          <path id="Subtract" fill="none" fill-rule="evenodd" d="M2.5 0.5h9c0.5523 0 1 0.447715 1 1v6h-11v-6c0 -0.552285 0.44772 -1 1 -1Z" clip-rule="evenodd" vector-effect="non-scaling-stroke" stroke="#f1f5f9"/>
          <path id="Vector_2" stroke="#f1f5f9" d="M11.5 0.5h-9c-0.55228 0 -1 0.447715 -1 1v11c0 0.5523 0.44772 1 1 1h9c0.5523 0 1 -0.4477 1 -1v-11c0 -0.552285 -0.4477 -1 -1 -1Z" vector-effect="non-scaling-stroke" fill="none"/>
          <path id="Vector_3" stroke="#f1f5f9" d="M1.5 4h11" vector-effect="non-scaling-stroke" fill="none"/>
          <path id="Vector_4" stroke="#f1f5f9" d="M1.5 7.5h11" vector-effect="non-scaling-stroke" fill="none"/>
          <path id="Vector_5" stroke="#f1f5f9" d="M7 7.5v6" vector-effect="non-scaling-stroke" fill="none" display="none"/>
          <path id="Vector_6" stroke="#f1f5f9" d="M9.5 10v1" vector-effect="non-scaling-stroke" fill="none" display="none"/>
          <path id="Vector_7" stroke="#f1f5f9" d="M4.5 10v1" vector-effect="non-scaling-stroke" fill="none" display="none"/>
        </g>
      </g>
    </g>
    <g transform="translate(-330, -36)">
      <text id="ITEM_3_HEAD" text-anchor="start" font-weight="bold" font-size="34" fill="var(--inverse-text)" x="0.0" y="-10.0" data-bg-id="ITEM_3_BG" fill-opacity="1.0" style="font-size: 30px; font-family: Inter, Segoe UI, Kalam, Roboto, Helvetica, Arial, sans-serif; font-weight: 700; letter-spacing:-0.4px;" data-final-font-size="30">
        <tspan x="0.0" dy="30.25px">Broad Catalogue</tspan>
      </text>
      <rect id="ITEM_3_HEAD_FRAME" x="0" y="-10" width="846" height="44" fill="none"/>
      <text id="ITEM_3_BODY" text-anchor="start" font-size="24" fill="var(--inverse-text)" x="0.0" y="24.0" data-bg-id="ITEM_3_BG" style="font-size: 26px; font-family: Inter, Segoe UI, Kalam, Roboto, Helvetica, Arial, sans-serif; font-weight: 400;" data-final-font-size="26">
        <tspan x="0.0" dy="31.62px">Huge product range simplifies page templates</tspan>
      </text>
      <rect id="ITEM_3_BODY_FRAME" x="0" y="24" width="846" height="84" fill="none"/>
    </g>
  </g>
  <g transform="translate(960.0, 855.0)">
    <rect id="ITEM_4_BG" x="-600" y="-72" width="1200" height="176" rx="24" fill="var(--accent-5)" stroke="var(--accent-4)" filter="url(#svg35e2641a-shadow)" stroke-width="3" fill-opacity="1.0"/>
    <g transform="translate(-480.0, 0.0)">
      <circle r="60" fill="var(--background)" opacity="0.3"/>
      <circle id="ITEM_4_PAD" cx="0" cy="0" r="50" fill="var(--icon-pad-bg)" stroke="var(--primary-text)" opacity="0.9" fill-opacity="0.9" stroke-width="2"/>
      <circle id="ITEM_4_PAD_INNER" cx="0" cy="0" r="39.00" fill="var(--accent-5)" fill-opacity="0.22"/>
      <circle cx="0" cy="0" r="40" fill="none" stroke="var(--accent-3)" stroke-width="3" stroke-dasharray="6 4"/>
      <g id="ITEM_4_ICON" transform="translate(-39, -39)" data-icon-size="78" stroke-dasharray="6 4">
        <g transform="translate(-5.571428571428571,-4.52678571428571) scale(2.7857142857142856)">
          <path d="M26 10.0276H6V27.0276H26V10.0276Z" fill="#636363"/>
          <path d="M3 10.0076V10.9776H4V26.7376H7V13.6912H8V26.7376H11V13.6912H21V27.0276H24V13.6912H25V26.9976H28V10.9776H29V10.0076L16 2.00757L3 10.0076Z" fill="#D3D3D3"/>
          <path d="M3.84998 9.1375L14.64 2.3975C15.48 1.8675 16.56 1.8675 17.4 2.3975L28.19 9.1375V11.0275L16.69 3.8875C16.28 3.6375 15.77 3.6375 15.36 3.8875L3.85999 11.0275V9.1375H3.84998Z" fill="#E6E6E6"/>
          <path d="M19.9853 11.0276C19.0711 12.2422 17.6173 13.0276 15.98 13.0276C14.3427 13.0276 12.8888 12.2422 11.9746 11.0276H3C2.45 11.0276 2 10.5776 2 10.0276C2 9.47759 2.45 9.02759 3 9.02759H11.0718C11.005 8.70135 10.97 8.36355 10.97 8.01757C10.97 5.25062 13.213 3.00757 15.98 3.00757C18.7469 3.00757 20.99 5.25062 20.99 8.01757C20.99 8.36355 20.9549 8.70135 20.8881 9.02759H29C29.55 9.02759 30 9.47759 30 10.0276C30 10.5776 29.55 11.0276 29 11.0276H19.9853ZM2 14.0276C2 13.4776 2.45 13.0276 3 13.0276H29C29.55 13.0276 30 13.4776 30 14.0276C30 14.5776 29.55 15.0276 29 15.0276H3C2.45 15.0276 2 14.5776 2 14.0276ZM2 29.0276H29.99V28.0976C29.99 27.5076 29.51 27.0276 28.92 27.0276H29V26.0976C29 25.5076 28.52 25.0276 27.93 25.0276H4.03998C3.44998 25.0276 2.96997 25.5076 2.96997 26.0976V27.0276H3.06999C2.47999 27.0276 2 27.5076 2 28.0976V29.0276Z" fill="#9B9B9B"/>
          <path d="M17.21 9.53759C17.36 9.34759 17.44 9.12759 17.44 8.87759C17.44 8.59759 17.37 8.37759 17.24 8.20759C17.12 8.03759 16.96 7.91759 16.78 7.82759C16.69 7.78759 16.59 7.74759 16.47 7.70759C16.4409 7.69885 16.4109 7.69011 16.38 7.68112C16.305 7.65926 16.225 7.63593 16.14 7.60759C15.96 7.55759 15.82 7.51759 15.73 7.48759C15.64 7.45759 15.58 7.41759 15.52 7.36759C15.51 7.35759 15.5 7.34759 15.5 7.33759C15.47 7.29759 15.46 7.24759 15.46 7.19759C15.46 7.15759 15.46 7.09759 15.5 7.04759C15.55 6.98759 15.65 6.93759 15.87 6.93759C16.02 6.93759 16.16 6.95759 16.27 7.01759C16.35 7.04759 16.41 7.08759 16.47 7.14759C16.5 7.16759 16.53 7.19759 16.56 7.22759C16.72 7.38759 17 7.40759 17.18 7.25759C17.3 7.16759 17.35 7.04759 17.35 6.90759C17.35 6.79759 17.32 6.68759 17.24 6.59759C17.1 6.40759 16.89 6.26759 16.64 6.16759C16.6278 6.16351 16.6159 6.15943 16.6044 6.15543C16.5592 6.13984 16.5177 6.12555 16.47 6.11759V5.47759C16.47 5.23759 16.27 5.02759 16.02 5.02759H15.95C15.7 5.02759 15.5 5.23759 15.5 5.47759V6.07759C15.4 6.09759 15.3 6.13759 15.2 6.17759C14.97 6.27759 14.79 6.40759 14.66 6.58759C14.51 6.77759 14.44 6.98759 14.44 7.23759C14.44 7.51759 14.51 7.73759 14.65 7.90759C14.78 8.07759 14.94 8.19759 15.13 8.27759C15.2057 8.31543 15.2986 8.34755 15.3999 8.3826C15.4325 8.39387 15.466 8.40543 15.5 8.41759C15.59 8.44759 15.69 8.47759 15.8 8.50759C16.04 8.56759 16.23 8.63759 16.34 8.69759C16.43 8.74759 16.47 8.81759 16.47 8.90759V8.90759C16.47 8.98759 16.47 9.18759 16.04 9.20759C15.85 9.20759 15.68 9.16759 15.54 9.10759C15.535 9.10259 15.5275 9.10009 15.52 9.09759C15.5125 9.09509 15.505 9.09259 15.5 9.08759C15.38 9.02759 15.26 8.93759 15.15 8.81759C14.96 8.62759 14.73 8.59759 14.52 8.72759C14.37 8.83759 14.3 8.96759 14.3 9.12759C14.3 9.23759 14.32 9.32759 14.38 9.40759C14.56 9.64759 14.79 9.82759 15.07 9.92759C15.21 9.98759 15.35 10.0276 15.5 10.0476V10.5876C15.5 10.8276 15.7 11.0276 15.95 11.0276H16.02C16.27 11.0276 16.47 10.8276 16.47 10.5876V10.0076C16.53 9.99759 16.59 9.97759 16.65 9.94759C16.88 9.85759 17.07 9.71759 17.21 9.53759ZM13 25.0276H19V18.6676C19 18.3176 18.71 18.0276 18.36 18.0276H13.63C13.28 18.0276 13 18.3076 13 18.6576V25.0276Z" fill="#321B41"/>
        </g>
      </g>
    </g>
    <g transform="translate(-330, -36)">
      <text id="ITEM_4_HEAD" text-anchor="start" font-weight="bold" font-size="34" fill="var(--primary-text)" x="0.0" y="-10.0" data-bg-id="ITEM_4_BG" fill-opacity="1.0" style="font-size: 30px; font-family: Inter, Segoe UI, Kalam, Roboto, Helvetica, Arial, sans-serif; font-weight: 700; letter-spacing:-0.4px;" data-final-font-size="30">
        <tspan x="0.0" dy="30.25px">Predictable Payouts</tspan>
      </text>
      <rect id="ITEM_4_HEAD_FRAME" x="0" y="-10" width="846" height="44" fill="none"/>
      <text id="ITEM_4_BODY" text-anchor="start" font-size="24" fill="var(--primary-text)" x="0.0" y="24.0" data-bg-id="ITEM_4_BG" style="font-size: 26px; font-family: Inter, Segoe UI, Kalam, Roboto, Helvetica, Arial, sans-serif; font-weight: 400;" data-final-font-size="26">
        <tspan x="0.0" dy="31.62px">Payments follow documented processes reliably</tspan>
      </text>
      <rect id="ITEM_4_BODY_FRAME" x="0" y="24" width="846" height="84" fill="none"/>
    </g>
  </g>
</svg>
